<?xml version="1.0" standalone="no"?><svg xmlns:xlink="http://www.w3.org/1999/xlink" xmlns="http://www.w3.org/2000/svg" viewBox="0 0 1000 375" preserveAspectRatio="xMaxYMax slice"><g transform="scale(0.702247191011236)"><rect x="0" y="0" width="1424" height="534" fill="#ffffff"/><rect x="0" y="0" width="178" height="178" fill="#7c92ee"/><path d="M 0 0 A 178 178 0 0 1 178 178 L 0 178" fill="#ff5f85"/><rect x="178" y="0" width="178" height="178" fill="#ff4a75"/><path d="M 178 0 A 178 178 0 0 1  356 178 L 178 0 A 178 178 0 0 0 356 178" fill="#2449e3"/><rect x="356" y="0" width="178" height="178" fill="#ff6d90"/><polygon points="534,0 534,178 356,178" fill="#1b42e1"/><rect x="534" y="0" width="178" height="178" fill="#ffffff"/><rect x="534" y="0" width="89" height="89" fill="#ff567e"/><path d="M 534 89 A 89 89 0 0 1 623 0 L 623 22.25 A 66.75 66.75 0 0 0 556.25 89" fill="#ff6c8f"/><rect x="623" y="0" width="89" height="89" fill="#ffe9ee"/><path d="M 623 0 A 89 89 0 0 1 712 89 L 689.75 89 A 66.75 66.75 0 0 0 623 22.25" fill="#ff507a"/><rect x="534" y="89" width="89" height="89" fill="#94a6f1"/><path d="M 534 89 A 89 89 0 0 0 623 178 L 623 155.75 A 66.75 66.75 0 0 1 556.25 89" fill="#ff7797"/><rect x="623" y="89" width="89" height="89" fill="#657feb"/><path d="M 623 178 A 89 89 0 0 0 712 89 L 689.75 89 A 66.75 66.75 0 0 1 623 155.75" fill="#ffcfda"/><rect x="712" y="0" width="178" height="178" fill="#ffffff"/><rect x="712" y="0" width="89" height="89" fill="#ff7e9d"/><circle cx="756.5" cy="44.5" r="44.5" fill="#8095ee"/><rect x="801" y="0" width="89" height="89" fill="#ffcbd7"/><rect x="801" y="0" width="89" height="89" fill="#bcc8f6"/><rect x="712" y="89" width="89" height="89" fill="#ff98b0"/><circle cx="756.5" cy="133.5" r="44.5" fill="#637eeb"/><rect x="801" y="89" width="89" height="89" fill="#1a41e1"/><rect x="801" y="89" width="89" height="89" fill="#e8ecfc"/><rect x="890" y="0" width="178" height="178" fill="#ff5f85"/><path d="M 890 0 A 178 178 0 0 1 1068 178 L 890 178" fill="#4363e7"/><rect x="1068" y="0" width="178" height="178" fill="#ffffff"/><rect x="1068" y="0" width="89" height="89" fill="#ff4f79"/><path d="M 1068 89 A 89 89 0 0 1  1157 0 L 1157 89" fill="#7b92ee"/><rect x="1157" y="0" width="89" height="89" fill="#ff84a1"/><path d="M 1157 0 A 89 89 0 0 1 1246 89 L 1157 89" fill="#cfd7f9"/><rect x="1068" y="89" width="89" height="89" fill="#b9c5f6"/><path d="M 1068 89 A 89 89 0 0 0 1157 178 L 1157 89" fill="#e3e7fb"/><rect x="1157" y="89" width="89" height="89" fill="#ffb0c3"/><path d="M 1157 178 A 89 89 0 0 0 1246 89 L 1157 89" fill="#4f6de8"/><rect x="1246" y="0" width="178" height="178" fill="#ffffff"/><rect x="1246" y="0" width="89" height="89" fill="#ff4b76"/><path d="M 1246 0 A 89 89 0 0 1 1335 89 L 1246 89" fill="#ffdbe3"/><rect x="1335" y="0" width="89" height="89" fill="#274ce3"/><path d="M 1335 89 A 89 89 0 0 1  1424 0 L 1424 89" fill="#ffb0c3"/><rect x="1246" y="89" width="89" height="89" fill="#ffc7d5"/><path d="M 1246 178 A 89 89 0 0 0 1335 89 L 1246 89" fill="#2d50e4"/><rect x="1335" y="89" width="89" height="89" fill="#889cf0"/><path d="M 1335 89 A 89 89 0 0 0 1424 178 L 1424 89" fill="#4262e6"/><rect x="0" y="178" width="178" height="178" fill="#93a5f1"/><path d="M 0 356 A 178 178 0 0 1  178 178 L 0 356 A 178 178 0 0 0 178 178" fill="#ff8da8"/><rect x="178" y="178" width="178" height="178" fill="#ffffff"/><rect x="178" y="178" width="89" height="89" fill="#fffbfc"/><path d="M 178 267 A 89 89 0 0 0 267 178 L 178 178" fill="#ff89a5"/><rect x="267" y="178" width="89" height="89" fill="#ffe8ed"/><path d="M 267 178 A 89 89 0 0 0 356 267 L 356 178" fill="#ffb8c9"/><rect x="178" y="267" width="89" height="89" fill="#2b4fe3"/><path d="M 178 267 A 89 89 0 0 1 267 356 L 178 356" fill="#ffa8bc"/><rect x="267" y="267" width="89" height="89" fill="#3a5be5"/><path d="M 267 356 A 89 89 0 0 1  356 267 L 356 356" fill="#ff4f79"/><rect x="356" y="178" width="178" height="178" fill="#cad3f8"/><rect x="356" y="178" width="178" height="178" fill="#ffd5df"/><rect x="534" y="178" width="178" height="178" fill="#ffdbe4"/><rect x="534" y="178" width="178" height="178" fill="#ffaec1"/><rect x="712" y="178" width="178" height="178" fill="#ffffff"/><rect x="712" y="178" width="89" height="89" fill="#ffcfda"/><polygon points="801,178 801,267 712,267" fill="#d5dcfa"/><rect x="801" y="178" width="89" height="89" fill="#d2daf9"/><polygon points="801,178 890,178 801,267" fill="#ff7596"/><rect x="712" y="267" width="89" height="89" fill="#fafbfe"/><polygon points="712,267 801,267 801,356" fill="#6c85ec"/><rect x="801" y="267" width="89" height="89" fill="#ff6187"/><polygon points="801,267 890,356 801,356" fill="#2f52e4"/><rect x="890" y="178" width="178" height="178" fill="#b4c0f5"/><path d="M 890 178 A 178 178 0 0 0 1068 356 L 1068 178" fill="#6d86ec"/><rect x="1068" y="178" width="178" height="178" fill="#ffe7ed"/><path d="M 1068 178 A 178 178 0 0 1  1246 356 L 1068 178 A 178 178 0 0 0 1246 356" fill="#4161e6"/><rect x="1246" y="178" width="178" height="178" fill="#ffffff"/><rect x="1246" y="178" width="89" height="89" fill="#3759e5"/><path d="M 1246 267 A 89 89 0 0 1 1335 178 L 1335 200.25 A 66.75 66.75 0 0 0 1268.25 267" fill="#3e5fe6"/><rect x="1335" y="178" width="89" height="89" fill="#ff7394"/><path d="M 1335 178 A 89 89 0 0 1 1424 267 L 1401.75 267 A 66.75 66.75 0 0 0 1335 200.25" fill="#eef1fd"/><rect x="1246" y="267" width="89" height="89" fill="#ffa4b9"/><path d="M 1246 267 A 89 89 0 0 0 1335 356 L 1335 333.75 A 66.75 66.75 0 0 1 1268.25 267" fill="#fafbfe"/><rect x="1335" y="267" width="89" height="89" fill="#99aaf2"/><path d="M 1335 356 A 89 89 0 0 0 1424 267 L 1401.75 267 A 66.75 66.75 0 0 1 1335 333.75" fill="#5a76ea"/><rect x="0" y="356" width="178" height="178" fill="#4968e7"/><path d="M 0 356 A 178 178 0 0 1 178 534 L 0 534" fill="#6b84ec"/><rect x="178" y="356" width="178" height="178" fill="#d8dffa"/><polygon points="178,356 356,534 178,534" fill="#ced6f9"/><rect x="356" y="356" width="178" height="178" fill="#ffeff3"/><path d="M 356 534 A 178 178 0 0 1  534 356 L 534 534" fill="#ffa7bc"/><rect x="534" y="356" width="178" height="178" fill="#ffffff"/><rect x="534" y="356" width="89" height="89" fill="#b7c3f6"/><polygon points="623,356 623,445 534,445" fill="#cdd5f9"/><rect x="623" y="356" width="89" height="89" fill="#ff97b0"/><polygon points="623,356 712,356 623,445" fill="#ffe6ec"/><rect x="534" y="445" width="89" height="89" fill="#8da0f0"/><polygon points="534,445 623,445 623,534" fill="#ff4470"/><rect x="623" y="445" width="89" height="89" fill="#8196ef"/><polygon points="623,445 712,534 623,534" fill="#8fa2f0"/><rect x="712" y="356" width="178" height="178" fill="#4363e7"/><polygon points="712,356 890,534 712,534" fill="#4665e7"/><rect x="890" y="356" width="178" height="178" fill="#ff7d9c"/><rect x="890" y="356" width="178" height="178" fill="#d9dffa"/><rect x="1068" y="356" width="178" height="178" fill="#ffffff"/><rect x="1068" y="356" width="89" height="89" fill="#ff85a2"/><path d="M 1068 356 A 89 89 0 0 0 1157 445 L 1157 356" fill="#ff678b"/><rect x="1157" y="356" width="89" height="89" fill="#ff4d78"/><path d="M 1157 445 A 89 89 0 0 0 1246 356 L 1157 356" fill="#5975ea"/><rect x="1068" y="445" width="89" height="89" fill="#ffa5ba"/><path d="M 1068 534 A 89 89 0 0 1  1157 445 L 1157 534" fill="#ffc4d2"/><rect x="1157" y="445" width="89" height="89" fill="#294de3"/><path d="M 1157 445 A 89 89 0 0 1 1246 534 L 1157 534" fill="#fff0f4"/><rect x="1246" y="356" width="178" height="178" fill="#fff5f7"/><path d="M 1246 356 A 178 178 0 0 1  1424 534 L 1246 356 A 178 178 0 0 0 1424 534" fill="#ffa2b8"/></g></svg>