<?xml version="1.0" standalone="no"?><svg xmlns:xlink="http://www.w3.org/1999/xlink" xmlns="http://www.w3.org/2000/svg" viewBox="0 0 1000 375" preserveAspectRatio="xMaxYMax slice"><g transform="scale(0.702247191011236)"><rect x="0" y="0" width="1424" height="534" fill="#ffffff"/><rect x="0" y="0" width="178" height="178" fill="#e6ebfc"/><g transform="translate(0,0) scale(8.9) rotate(0)"><rect width="2" height="20" fill="#b260ff"/><rect x="4" width="2" height="20" fill="#b260ff"/><rect x="8" width="2" height="20" fill="#b260ff"/><rect x="12" width="2" height="20" fill="#b260ff"/><rect x="16" width="2" height="20" fill="#b260ff"/></g><rect x="178" y="0" width="178" height="178" fill="#c07eff"/><g transform="translate(178,0) scale(8.9) rotate(0)"><rect width="2" height="20" fill="#ca92ff"/><rect x="4" width="2" height="20" fill="#ca92ff"/><rect x="8" width="2" height="20" fill="#ca92ff"/><rect x="12" width="2" height="20" fill="#ca92ff"/><rect x="16" width="2" height="20" fill="#ca92ff"/></g><rect x="356" y="0" width="178" height="178" fill="#d6abff"/><g transform="translate(356,0) scale(8.9) rotate(0)"><rect width="2" height="20" fill="#a444ff"/><rect x="4" width="2" height="20" fill="#a444ff"/><rect x="8" width="2" height="20" fill="#a444ff"/><rect x="12" width="2" height="20" fill="#a444ff"/><rect x="16" width="2" height="20" fill="#a444ff"/></g><rect x="534" y="0" width="178" height="178" fill="#c282ff"/><g transform="translate(534,0) scale(8.9) rotate(0)"><rect width="2" height="20" fill="#debbff"/><rect x="4" width="2" height="20" fill="#debbff"/><rect x="8" width="2" height="20" fill="#debbff"/><rect x="12" width="2" height="20" fill="#debbff"/><rect x="16" width="2" height="20" fill="#debbff"/></g><rect x="712" y="0" width="178" height="178" fill="#6f88ec"/><g transform="translate(712,0) scale(8.9) rotate(0)"><rect width="2" height="20" fill="#768ded"/><rect x="4" width="2" height="20" fill="#768ded"/><rect x="8" width="2" height="20" fill="#768ded"/><rect x="12" width="2" height="20" fill="#768ded"/><rect x="16" width="2" height="20" fill="#768ded"/></g><rect x="890" y="0" width="178" height="178" fill="#3457e5"/><g transform="translate(890,0) scale(8.9) rotate(0)"><rect width="2" height="20" fill="#9faff2"/><rect x="4" width="2" height="20" fill="#9faff2"/><rect x="8" width="2" height="20" fill="#9faff2"/><rect x="12" width="2" height="20" fill="#9faff2"/><rect x="16" width="2" height="20" fill="#9faff2"/></g><rect x="1068" y="0" width="178" height="178" fill="#ab53ff"/><g transform="translate(1068,0) scale(8.9) rotate(0)"><rect width="2" height="20" fill="#ce9bff"/><rect x="4" width="2" height="20" fill="#ce9bff"/><rect x="8" width="2" height="20" fill="#ce9bff"/><rect x="12" width="2" height="20" fill="#ce9bff"/><rect x="16" width="2" height="20" fill="#ce9bff"/></g><rect x="1246" y="0" width="178" height="178" fill="#efddff"/><g transform="translate(1246,0) scale(8.9) rotate(0)"><rect width="2" height="20" fill="#b465ff"/><rect x="4" width="2" height="20" fill="#b465ff"/><rect x="8" width="2" height="20" fill="#b465ff"/><rect x="12" width="2" height="20" fill="#b465ff"/><rect x="16" width="2" height="20" fill="#b465ff"/></g><rect x="0" y="178" width="178" height="178" fill="#c78cff"/><g transform="translate(0,178) scale(8.9) rotate(0)"><rect width="2" height="20" fill="#fdfbff"/><rect x="4" width="2" height="20" fill="#fdfbff"/><rect x="8" width="2" height="20" fill="#fdfbff"/><rect x="12" width="2" height="20" fill="#fdfbff"/><rect x="16" width="2" height="20" fill="#fdfbff"/></g><rect x="178" y="178" width="178" height="178" fill="#a1b1f3"/><g transform="translate(178,178) scale(8.9) rotate(0)"><rect width="2" height="20" fill="#4565e7"/><rect x="4" width="2" height="20" fill="#4565e7"/><rect x="8" width="2" height="20" fill="#4565e7"/><rect x="12" width="2" height="20" fill="#4565e7"/><rect x="16" width="2" height="20" fill="#4565e7"/></g><rect x="356" y="178" width="178" height="178" fill="#4967e7"/><g transform="translate(356,178) scale(8.9) rotate(0)"><rect width="2" height="20" fill="#cbd4f8"/><rect x="4" width="2" height="20" fill="#cbd4f8"/><rect x="8" width="2" height="20" fill="#cbd4f8"/><rect x="12" width="2" height="20" fill="#cbd4f8"/><rect x="16" width="2" height="20" fill="#cbd4f8"/></g><rect x="534" y="178" width="178" height="178" fill="#3456e5"/><g transform="translate(534,178) scale(8.9) rotate(0)"><rect width="2" height="20" fill="#f8f0ff"/><rect x="4" width="2" height="20" fill="#f8f0ff"/><rect x="8" width="2" height="20" fill="#f8f0ff"/><rect x="12" width="2" height="20" fill="#f8f0ff"/><rect x="16" width="2" height="20" fill="#f8f0ff"/></g><rect x="712" y="178" width="178" height="178" fill="#e4c7ff"/><g transform="translate(712,178) scale(8.9) rotate(0)"><rect width="2" height="20" fill="#a546ff"/><rect x="4" width="2" height="20" fill="#a546ff"/><rect x="8" width="2" height="20" fill="#a546ff"/><rect x="12" width="2" height="20" fill="#a546ff"/><rect x="16" width="2" height="20" fill="#a546ff"/></g><rect x="890" y="178" width="178" height="178" fill="#dfbdff"/><g transform="translate(890,178) scale(8.9) rotate(0)"><rect width="2" height="20" fill="#e7ebfc"/><rect x="4" width="2" height="20" fill="#e7ebfc"/><rect x="8" width="2" height="20" fill="#e7ebfc"/><rect x="12" width="2" height="20" fill="#e7ebfc"/><rect x="16" width="2" height="20" fill="#e7ebfc"/></g><rect x="1068" y="178" width="178" height="178" fill="#e5e9fc"/><g transform="translate(1068,178) scale(8.9) rotate(0)"><rect width="2" height="20" fill="#ad56ff"/><rect x="4" width="2" height="20" fill="#ad56ff"/><rect x="8" width="2" height="20" fill="#ad56ff"/><rect x="12" width="2" height="20" fill="#ad56ff"/><rect x="16" width="2" height="20" fill="#ad56ff"/></g><rect x="1246" y="178" width="178" height="178" fill="#d9b1ff"/><g transform="translate(1246,178) scale(8.9) rotate(0)"><rect width="2" height="20" fill="#3456e5"/><rect x="4" width="2" height="20" fill="#3456e5"/><rect x="8" width="2" height="20" fill="#3456e5"/><rect x="12" width="2" height="20" fill="#3456e5"/><rect x="16" width="2" height="20" fill="#3456e5"/></g><rect x="0" y="356" width="178" height="178" fill="#fcf8ff"/><g transform="translate(0,356) scale(8.9) rotate(0)"><rect width="2" height="20" fill="#9cadf2"/><rect x="4" width="2" height="20" fill="#9cadf2"/><rect x="8" width="2" height="20" fill="#9cadf2"/><rect x="12" width="2" height="20" fill="#9cadf2"/><rect x="16" width="2" height="20" fill="#9cadf2"/></g><rect x="178" y="356" width="178" height="178" fill="#f5f7fe"/><g transform="translate(178,356) scale(8.9) rotate(0)"><rect width="2" height="20" fill="#dfbcff"/><rect x="4" width="2" height="20" fill="#dfbcff"/><rect x="8" width="2" height="20" fill="#dfbcff"/><rect x="12" width="2" height="20" fill="#dfbcff"/><rect x="16" width="2" height="20" fill="#dfbcff"/></g><rect x="356" y="356" width="178" height="178" fill="#254ae3"/><g transform="translate(356,356) scale(8.9) rotate(0)"><rect width="2" height="20" fill="#fefeff"/><rect x="4" width="2" height="20" fill="#fefeff"/><rect x="8" width="2" height="20" fill="#fefeff"/><rect x="12" width="2" height="20" fill="#fefeff"/><rect x="16" width="2" height="20" fill="#fefeff"/></g><rect x="534" y="356" width="178" height="178" fill="#e4c8ff"/><g transform="translate(534,356) scale(8.9) rotate(0)"><rect width="2" height="20" fill="#f6ecff"/><rect x="4" width="2" height="20" fill="#f6ecff"/><rect x="8" width="2" height="20" fill="#f6ecff"/><rect x="12" width="2" height="20" fill="#f6ecff"/><rect x="16" width="2" height="20" fill="#f6ecff"/></g><rect x="712" y="356" width="178" height="178" fill="#96a8f1"/><g transform="translate(712,356) scale(8.9) rotate(0)"><rect width="2" height="20" fill="#a3b3f3"/><rect x="4" width="2" height="20" fill="#a3b3f3"/><rect x="8" width="2" height="20" fill="#a3b3f3"/><rect x="12" width="2" height="20" fill="#a3b3f3"/><rect x="16" width="2" height="20" fill="#a3b3f3"/></g><rect x="890" y="356" width="178" height="178" fill="#edf0fd"/><g transform="translate(890,356) scale(8.9) rotate(0)"><rect width="2" height="20" fill="#5975e9"/><rect x="4" width="2" height="20" fill="#5975e9"/><rect x="8" width="2" height="20" fill="#5975e9"/><rect x="12" width="2" height="20" fill="#5975e9"/><rect x="16" width="2" height="20" fill="#5975e9"/></g><rect x="1068" y="356" width="178" height="178" fill="#ddb9ff"/><g transform="translate(1068,356) scale(8.9) rotate(0)"><rect width="2" height="20" fill="#af5bff"/><rect x="4" width="2" height="20" fill="#af5bff"/><rect x="8" width="2" height="20" fill="#af5bff"/><rect x="12" width="2" height="20" fill="#af5bff"/><rect x="16" width="2" height="20" fill="#af5bff"/></g><rect x="1246" y="356" width="178" height="178" fill="#1c42e1"/><g transform="translate(1246,356) scale(8.9) rotate(0)"><rect width="2" height="20" fill="#ab53ff"/><rect x="4" width="2" height="20" fill="#ab53ff"/><rect x="8" width="2" height="20" fill="#ab53ff"/><rect x="12" width="2" height="20" fill="#ab53ff"/><rect x="16" width="2" height="20" fill="#ab53ff"/></g></g></svg>