<?xml version="1.0" standalone="no"?><svg xmlns:xlink="http://www.w3.org/1999/xlink" xmlns="http://www.w3.org/2000/svg" viewBox="0 0 1000 375" preserveAspectRatio="xMaxYMax slice"><g transform="scale(0.702247191011236)"><rect x="0" y="0" width="1424" height="534" fill="#ffffff"/><rect x="0" y="0" width="178" height="178" fill="#ecc56a"/><path d="M 0 0 A 178 178 0 0 0 178 178 L 178 0" fill="#e2c3ff"/><rect x="178" y="0" width="178" height="178" fill="#ffffff"/><rect x="178" y="0" width="89" height="89" fill="#e3a71c"/><path d="M 178 89 A 89 89 0 0 1  267 0 L 267 89" fill="#fbf3e0"/><rect x="267" y="0" width="89" height="89" fill="#debbff"/><path d="M 267 0 A 89 89 0 0 1 356 89 L 267 89" fill="#dbb5ff"/><rect x="178" y="89" width="89" height="89" fill="#fbf3e1"/><path d="M 178 89 A 89 89 0 0 0 267 178 L 267 89" fill="#a94dff"/><rect x="267" y="89" width="89" height="89" fill="#c281ff"/><path d="M 267 178 A 89 89 0 0 0 356 89 L 267 89" fill="#e5ae2e"/><rect x="356" y="0" width="178" height="178" fill="#ffffff"/><rect x="356" y="0" width="89" height="89" fill="#fbf3e0"/><polygon points="445,0 445,89 356,89" fill="#cc97ff"/><rect x="445" y="0" width="89" height="89" fill="#f1d28c"/><polygon points="445,0 534,89 445,89" fill="#faeed4"/><rect x="356" y="89" width="89" height="89" fill="#ca91ff"/><polygon points="356,89 445,89 445,178" fill="#9c34ff"/><rect x="445" y="89" width="89" height="89" fill="#e5ad2d"/><polygon points="445,89 534,89 445,178" fill="#d09eff"/><rect x="534" y="0" width="178" height="178" fill="#ffffff"/><rect x="534" y="0" width="89" height="89" fill="#f3dba1"/><path d="M 534 89 A 89 89 0 0 0 623 0 L 534 0" fill="#b76cff"/><rect x="623" y="0" width="89" height="89" fill="#fcf4e4"/><path d="M 623 0 A 89 89 0 0 0 712 89 L 712 0" fill="#dfbeff"/><rect x="534" y="89" width="89" height="89" fill="#f4dda7"/><path d="M 534 89 A 89 89 0 0 1 623 178 L 534 178" fill="#f2d798"/><rect x="623" y="89" width="89" height="89" fill="#ab53ff"/><path d="M 623 178 A 89 89 0 0 1  712 89 L 712 178" fill="#9f39ff"/><rect x="712" y="0" width="178" height="178" fill="#ffffff"/><rect x="712" y="0" width="89" height="89" fill="#f5e9ff"/><polygon points="801,0 801,89 712,89" fill="#f3dba3"/><rect x="801" y="0" width="89" height="89" fill="#a03bff"/><polygon points="801,0 890,89 801,89" fill="#f3e6ff"/><rect x="712" y="89" width="89" height="89" fill="#e5ae30"/><polygon points="712,89 801,89 712,178" fill="#bd77ff"/><rect x="801" y="89" width="89" height="89" fill="#edc66d"/><polygon points="801,89 890,89 890,178" fill="#f1d28c"/><rect x="890" y="0" width="178" height="178" fill="#eabd56"/><rect x="890" y="0" width="178" height="178" fill="#e4ac2b"/><rect x="1068" y="0" width="178" height="178" fill="#e2a518"/><path d="M 1068 178 A 178 178 0 0 1  1246 0 L 1246 178" fill="#e2a61b"/><rect x="1246" y="0" width="178" height="178" fill="#ffffff"/><rect x="1246" y="0" width="89" height="89" fill="#bf7bff"/><path d="M 1246 89 A 89 89 0 0 1 1335 0 L 1335 22.25 A 66.75 66.75 0 0 0 1268.25 89" fill="#faf1db"/><rect x="1335" y="0" width="89" height="89" fill="#e9d1ff"/><path d="M 1335 0 A 89 89 0 0 1 1424 89 L 1401.75 89 A 66.75 66.75 0 0 0 1335 22.25" fill="#e4c8ff"/><rect x="1246" y="89" width="89" height="89" fill="#faf1db"/><path d="M 1246 89 A 89 89 0 0 0 1335 178 L 1335 155.75 A 66.75 66.75 0 0 1 1268.25 89" fill="#fcf5e5"/><rect x="1335" y="89" width="89" height="89" fill="#f3d99c"/><path d="M 1335 178 A 89 89 0 0 0 1424 89 L 1401.75 89 A 66.75 66.75 0 0 1 1335 155.75" fill="#dbb4ff"/><rect x="0" y="178" width="178" height="178" fill="#ffffff"/><rect x="0" y="178" width="89" height="89" fill="#fcfaff"/><path d="M 0 178 A 89 89 0 0 1 89 267 L 0 267" fill="#f0d086"/><rect x="89" y="178" width="89" height="89" fill="#faefd7"/><path d="M 89 267 A 89 89 0 0 1  178 178 L 178 267" fill="#ad57ff"/><rect x="0" y="267" width="89" height="89" fill="#efcd7e"/><path d="M 0 356 A 89 89 0 0 0 89 267 L 0 267" fill="#fefcf8"/><rect x="89" y="267" width="89" height="89" fill="#e7b33c"/><path d="M 89 267 A 89 89 0 0 0 178 356 L 178 267" fill="#a444ff"/><rect x="178" y="178" width="178" height="178" fill="#f6e2b5"/><rect x="178" y="178" width="178" height="178" fill="#fbf6ff"/><rect x="356" y="178" width="178" height="178" fill="#ffffff"/><rect x="356" y="178" width="89" height="89" fill="#c281ff"/><circle cx="400.5" cy="222.5" r="44.5" fill="#e3a81f"/><rect x="445" y="178" width="89" height="89" fill="#e2a518"/><rect x="445" y="178" width="89" height="89" fill="#bc75ff"/><rect x="356" y="267" width="89" height="89" fill="#f2d799"/><circle cx="400.5" cy="311.5" r="44.5" fill="#d9b1ff"/><rect x="445" y="267" width="89" height="89" fill="#a545ff"/><rect x="445" y="267" width="89" height="89" fill="#c384ff"/><rect x="534" y="178" width="178" height="178" fill="#fbf3e0"/><path d="M 534 178 A 178 178 0 0 1 712 356 L 534 356" fill="#a13dff"/><rect x="712" y="178" width="178" height="178" fill="#b86eff"/><rect x="712" y="178" width="178" height="178" fill="#f5e1b1"/><rect x="890" y="178" width="178" height="178" fill="#a94fff"/><path d="M 890 356 A 178 178 0 0 1  1068 178 L 890 356 A 178 178 0 0 0 1068 178" fill="#f3e6ff"/><rect x="1068" y="178" width="178" height="178" fill="#a94fff"/><polygon points="1246,178 1246,356 1068,356" fill="#fdf9ef"/><rect x="1246" y="178" width="178" height="178" fill="#ffffff"/><rect x="1246" y="178" width="89" height="89" fill="#ecd8ff"/><path d="M 1246 178 A 89 89 0 0 1 1335 267 L 1246 267" fill="#fefdfa"/><rect x="1335" y="178" width="89" height="89" fill="#f9edd1"/><path d="M 1335 267 A 89 89 0 0 1  1424 178 L 1424 267" fill="#aa50ff"/><rect x="1246" y="267" width="89" height="89" fill="#cd97ff"/><path d="M 1246 356 A 89 89 0 0 0 1335 267 L 1246 267" fill="#e9bb50"/><rect x="1335" y="267" width="89" height="89" fill="#e0beff"/><path d="M 1335 267 A 89 89 0 0 0 1424 356 L 1424 267" fill="#b363ff"/><rect x="0" y="356" width="178" height="178" fill="#ffffff"/><rect x="0" y="356" width="89" height="89" fill="#f4dca4"/><path d="M 0 445 A 89 89 0 0 0 89 356 L 0 356" fill="#c486ff"/><rect x="89" y="356" width="89" height="89" fill="#e5c9ff"/><path d="M 89 356 A 89 89 0 0 0 178 445 L 178 356" fill="#f9eccd"/><rect x="0" y="445" width="89" height="89" fill="#d8afff"/><path d="M 0 445 A 89 89 0 0 1 89 534 L 0 534" fill="#e6b239"/><rect x="89" y="445" width="89" height="89" fill="#ecc467"/><path d="M 89 534 A 89 89 0 0 1  178 445 L 178 534" fill="#e4ac2b"/><rect x="178" y="356" width="178" height="178" fill="#b261ff"/><path d="M 178 356 A 178 178 0 0 1 356 534 L 178 534" fill="#e1c0ff"/><rect x="356" y="356" width="178" height="178" fill="#ffffff"/><rect x="356" y="356" width="89" height="89" fill="#bf7cff"/><circle cx="400.5" cy="400.5" r="44.5" fill="#c17fff"/><rect x="445" y="356" width="89" height="89" fill="#b96fff"/><rect x="445" y="356" width="89" height="89" fill="#b669ff"/><rect x="356" y="445" width="89" height="89" fill="#f3d99d"/><circle cx="400.5" cy="489.5" r="44.5" fill="#d2a2ff"/><rect x="445" y="445" width="89" height="89" fill="#c07eff"/><rect x="445" y="445" width="89" height="89" fill="#f4dca5"/><rect x="534" y="356" width="178" height="178" fill="#ffffff"/><rect x="534" y="356" width="89" height="89" fill="#edc973"/><path d="M 534 445 A 89 89 0 0 1  623 356 L 623 445" fill="#b566ff"/><rect x="623" y="356" width="89" height="89" fill="#bd76ff"/><path d="M 623 356 A 89 89 0 0 1 712 445 L 623 445" fill="#e9d1ff"/><rect x="534" y="445" width="89" height="89" fill="#9c34ff"/><path d="M 534 445 A 89 89 0 0 0 623 534 L 623 445" fill="#f2d695"/><rect x="623" y="445" width="89" height="89" fill="#d09fff"/><path d="M 623 534 A 89 89 0 0 0 712 445 L 623 445" fill="#ebc262"/><rect x="712" y="356" width="178" height="178" fill="#aa4fff"/><polygon points="712,356 890,356 712,534" fill="#fdf8ed"/><rect x="890" y="356" width="178" height="178" fill="#d4a7ff"/><path d="M 890 534 A 178 178 0 0 1  1068 356 L 1068 534" fill="#cc97ff"/><rect x="1068" y="356" width="178" height="178" fill="#cf9bff"/><path d="M 1068 534 A 178 178 0 0 0 1246 356 L 1068 356" fill="#ab52ff"/><rect x="1246" y="356" width="178" height="178" fill="#f2d594"/><rect x="1246" y="356" width="178" height="178" fill="#a340ff"/></g></svg>