<?xml version="1.0" standalone="no"?><svg xmlns:xlink="http://www.w3.org/1999/xlink" xmlns="http://www.w3.org/2000/svg" viewBox="0 0 1000 375" preserveAspectRatio="xMaxYMax slice"><g transform="scale(0.702247191011236)"><rect x="0" y="0" width="1424" height="534" fill="#ffffff"/><rect x="0" y="0" width="178" height="178" fill="#9c33ff"/><path d="M 0 0 A 178 178 0 0 1  178 178 L 0 0 A 178 178 0 0 0 178 178" fill="#18e28a"/><rect x="178" y="0" width="178" height="178" fill="#ffffff"/><rect x="178" y="0" width="89" height="89" fill="#9c33ff"/><path d="M 178 89 A 89 89 0 0 1  267 0 L 267 89" fill="#9c33ff"/><rect x="267" y="0" width="89" height="89" fill="#18e28a"/><path d="M 267 0 A 89 89 0 0 1 356 89 L 267 89" fill="#18e28a"/><rect x="178" y="89" width="89" height="89" fill="#9c33ff"/><path d="M 178 89 A 89 89 0 0 0 267 178 L 267 89" fill="#18e28a"/><rect x="267" y="89" width="89" height="89" fill="#9c33ff"/><path d="M 267 178 A 89 89 0 0 0 356 89 L 267 89" fill="#18e28a"/><rect x="356" y="0" width="178" height="178" fill="#ffffff"/><rect x="356" y="0" width="89" height="89" fill="#18e28a"/><polygon points="445,0 445,89 356,89" fill="#9c33ff"/><rect x="445" y="0" width="89" height="89" fill="#9c33ff"/><polygon points="445,0 534,0 445,89" fill="#9c33ff"/><rect x="356" y="89" width="89" height="89" fill="#18e28a"/><polygon points="356,89 445,89 445,178" fill="#9c33ff"/><rect x="445" y="89" width="89" height="89" fill="#9c33ff"/><polygon points="445,89 534,178 445,178" fill="#18e28a"/><rect x="534" y="0" width="178" height="178" fill="#9c33ff"/><rect x="534" y="0" width="178" height="178" fill="#9c33ff"/><rect x="712" y="0" width="178" height="178" fill="#9c33ff"/><rect x="712" y="0" width="178" height="178" fill="#18e28a"/><rect x="890" y="0" width="178" height="178" fill="#ffffff"/><rect x="890" y="0" width="89" height="89" fill="#18e28a"/><path d="M 890 89 A 89 89 0 0 1 979 0 L 979 22.25 A 66.75 66.75 0 0 0 912.25 89" fill="#18e28a"/><rect x="979" y="0" width="89" height="89" fill="#9c33ff"/><path d="M 979 0 A 89 89 0 0 1 1068 89 L 1045.75 89 A 66.75 66.75 0 0 0 979 22.25" fill="#9c33ff"/><rect x="890" y="89" width="89" height="89" fill="#18e28a"/><path d="M 890 89 A 89 89 0 0 0 979 178 L 979 155.75 A 66.75 66.75 0 0 1 912.25 89" fill="#18e28a"/><rect x="979" y="89" width="89" height="89" fill="#18e28a"/><path d="M 979 178 A 89 89 0 0 0 1068 89 L 1045.75 89 A 66.75 66.75 0 0 1 979 155.75" fill="#9c33ff"/><rect x="1068" y="0" width="178" height="178" fill="#ffffff"/><rect x="1068" y="0" width="89" height="89" fill="#9c33ff"/><path d="M 1068 89 A 89 89 0 0 1 1157 0 L 1157 22.25 A 66.75 66.75 0 0 0 1090.25 89" fill="#9c33ff"/><rect x="1157" y="0" width="89" height="89" fill="#18e28a"/><path d="M 1157 0 A 89 89 0 0 1 1246 89 L 1223.75 89 A 66.75 66.75 0 0 0 1157 22.25" fill="#18e28a"/><rect x="1068" y="89" width="89" height="89" fill="#18e28a"/><path d="M 1068 89 A 89 89 0 0 0 1157 178 L 1157 155.75 A 66.75 66.75 0 0 1 1090.25 89" fill="#9c33ff"/><rect x="1157" y="89" width="89" height="89" fill="#9c33ff"/><path d="M 1157 178 A 89 89 0 0 0 1246 89 L 1223.75 89 A 66.75 66.75 0 0 1 1157 155.75" fill="#9c33ff"/><rect x="1246" y="0" width="178" height="178" fill="#ffffff"/><rect x="1246" y="0" width="89" height="89" fill="#9c33ff"/><polygon points="1335,0 1335,89 1246,89" fill="#9c33ff"/><rect x="1335" y="0" width="89" height="89" fill="#18e28a"/><polygon points="1335,0 1424,89 1335,89" fill="#18e28a"/><rect x="1246" y="89" width="89" height="89" fill="#9c33ff"/><polygon points="1246,89 1335,89 1246,178" fill="#18e28a"/><rect x="1335" y="89" width="89" height="89" fill="#18e28a"/><polygon points="1335,89 1424,89 1424,178" fill="#18e28a"/><rect x="0" y="178" width="178" height="178" fill="#18e28a"/><polygon points="0,178 178,178 178,356" fill="#18e28a"/><rect x="178" y="178" width="178" height="178" fill="#ffffff"/><rect x="178" y="178" width="89" height="89" fill="#9c33ff"/><path d="M 178 178 A 89 89 0 0 0 267 267 L 267 178" fill="#18e28a"/><rect x="267" y="178" width="89" height="89" fill="#9c33ff"/><path d="M 267 267 A 89 89 0 0 0 356 178 L 267 178" fill="#9c33ff"/><rect x="178" y="267" width="89" height="89" fill="#9c33ff"/><path d="M 178 356 A 89 89 0 0 1  267 267 L 267 356" fill="#18e28a"/><rect x="267" y="267" width="89" height="89" fill="#18e28a"/><path d="M 267 267 A 89 89 0 0 1 356 356 L 267 356" fill="#9c33ff"/><rect x="356" y="178" width="178" height="178" fill="#18e28a"/><rect x="356" y="178" width="178" height="178" fill="#18e28a"/><rect x="534" y="178" width="178" height="178" fill="#18e28a"/><polygon points="534,178 712,356 534,356" fill="#18e28a"/><rect x="712" y="178" width="178" height="178" fill="#18e28a"/><rect x="712" y="178" width="178" height="178" fill="#18e28a"/><rect x="890" y="178" width="178" height="178" fill="#ffffff"/><rect x="890" y="178" width="89" height="89" fill="#18e28a"/><path d="M 890 267 A 89 89 0 0 1 979 178 L 979 200.25 A 66.75 66.75 0 0 0 912.25 267" fill="#9c33ff"/><rect x="979" y="178" width="89" height="89" fill="#9c33ff"/><path d="M 979 178 A 89 89 0 0 1 1068 267 L 1045.75 267 A 66.75 66.75 0 0 0 979 200.25" fill="#9c33ff"/><rect x="890" y="267" width="89" height="89" fill="#18e28a"/><path d="M 890 267 A 89 89 0 0 0 979 356 L 979 333.75 A 66.75 66.75 0 0 1 912.25 267" fill="#18e28a"/><rect x="979" y="267" width="89" height="89" fill="#18e28a"/><path d="M 979 356 A 89 89 0 0 0 1068 267 L 1045.75 267 A 66.75 66.75 0 0 1 979 333.75" fill="#18e28a"/><rect x="1068" y="178" width="178" height="178" fill="#9c33ff"/><rect x="1068" y="178" width="178" height="178" fill="#9c33ff"/><rect x="1246" y="178" width="178" height="178" fill="#18e28a"/><rect x="1246" y="178" width="178" height="178" fill="#18e28a"/><rect x="0" y="356" width="178" height="178" fill="#ffffff"/><rect x="0" y="356" width="89" height="89" fill="#9c33ff"/><path d="M 0 356 A 89 89 0 0 1 89 445 L 0 445" fill="#18e28a"/><rect x="89" y="356" width="89" height="89" fill="#9c33ff"/><path d="M 89 445 A 89 89 0 0 1  178 356 L 178 445" fill="#18e28a"/><rect x="0" y="445" width="89" height="89" fill="#18e28a"/><path d="M 0 534 A 89 89 0 0 0 89 445 L 0 445" fill="#9c33ff"/><rect x="89" y="445" width="89" height="89" fill="#9c33ff"/><path d="M 89 445 A 89 89 0 0 0 178 534 L 178 445" fill="#9c33ff"/><rect x="178" y="356" width="178" height="178" fill="#ffffff"/><rect x="178" y="356" width="89" height="89" fill="#9c33ff"/><path d="M 178 445 A 89 89 0 0 1  267 356 L 267 445" fill="#9c33ff"/><rect x="267" y="356" width="89" height="89" fill="#9c33ff"/><path d="M 267 356 A 89 89 0 0 1 356 445 L 267 445" fill="#18e28a"/><rect x="178" y="445" width="89" height="89" fill="#18e28a"/><path d="M 178 445 A 89 89 0 0 0 267 534 L 267 445" fill="#9c33ff"/><rect x="267" y="445" width="89" height="89" fill="#18e28a"/><path d="M 267 534 A 89 89 0 0 0 356 445 L 267 445" fill="#18e28a"/><rect x="356" y="356" width="178" height="178" fill="#18e28a"/><path d="M 356 534 A 178 178 0 0 0 534 356 L 356 356" fill="#18e28a"/><rect x="534" y="356" width="178" height="178" fill="#ffffff"/><rect x="534" y="356" width="89" height="89" fill="#9c33ff"/><polygon points="623,356 623,445 534,445" fill="#9c33ff"/><rect x="623" y="356" width="89" height="89" fill="#18e28a"/><polygon points="623,356 712,356 623,445" fill="#9c33ff"/><rect x="534" y="445" width="89" height="89" fill="#18e28a"/><polygon points="534,445 623,445 623,534" fill="#9c33ff"/><rect x="623" y="445" width="89" height="89" fill="#18e28a"/><polygon points="623,445 712,534 623,534" fill="#9c33ff"/><rect x="712" y="356" width="178" height="178" fill="#18e28a"/><path d="M 712 356 A 178 178 0 0 1 890 534 L 712 534" fill="#9c33ff"/><rect x="890" y="356" width="178" height="178" fill="#18e28a"/><polygon points="890,356 1068,356 1068,534" fill="#9c33ff"/><rect x="1068" y="356" width="178" height="178" fill="#18e28a"/><path d="M 1068 356 A 178 178 0 0 1  1246 534 L 1068 356 A 178 178 0 0 0 1246 534" fill="#9c33ff"/><rect x="1246" y="356" width="178" height="178" fill="#ffffff"/><rect x="1246" y="356" width="89" height="89" fill="#9c33ff"/><path d="M 1246 356 A 89 89 0 0 0 1335 445 L 1335 356" fill="#9c33ff"/><rect x="1335" y="356" width="89" height="89" fill="#18e28a"/><path d="M 1335 445 A 89 89 0 0 0 1424 356 L 1335 356" fill="#18e28a"/><rect x="1246" y="445" width="89" height="89" fill="#18e28a"/><path d="M 1246 534 A 89 89 0 0 1  1335 445 L 1335 534" fill="#18e28a"/><rect x="1335" y="445" width="89" height="89" fill="#18e28a"/><path d="M 1335 445 A 89 89 0 0 1 1424 534 L 1335 534" fill="#9c33ff"/></g></svg>