<?xml version="1.0" standalone="no"?><svg xmlns:xlink="http://www.w3.org/1999/xlink" xmlns="http://www.w3.org/2000/svg" viewBox="0 0 1000 375" preserveAspectRatio="xMaxYMax slice"><g transform="scale(0.702247191011236)"><rect x="0" y="0" width="1424" height="534" fill="#ffffff"/><rect x="0" y="0" width="178" height="178" fill="#ffffff"/><rect x="0" y="0" width="89" height="89" fill="#f0ff4e"/><path d="M 0 0 A 89 89 0 0 1  89 89 L 0 0 A 89 89 0 0 0 89 89" fill="#fbffd1"/><rect x="89" y="0" width="89" height="89" fill="#efff3b"/><path d="M 89 89 A 89 89 0 0 1  178 0 L 178 89" fill="#ed7179"/><rect x="0" y="89" width="89" height="89" fill="#e52d39"/><path d="M 0 178 A 89 89 0 0 0 89 89 L 0 89" fill="#e7434d"/><rect x="89" y="89" width="89" height="89" fill="#fadadc"/><path d="M 89 89 A 89 89 0 0 1  178 178 L 89 89 A 89 89 0 0 0 178 178" fill="#e8454f"/><rect x="178" y="0" width="178" height="178" fill="#fad8da"/><path d="M 178 178 A 178 178 0 0 1  356 0 L 356 178" fill="#fcffe0"/><rect x="356" y="0" width="178" height="178" fill="#f8c4c8"/><path d="M 356 178 A 178 178 0 0 0 534 0 L 356 0" fill="#e42935"/><rect x="534" y="0" width="178" height="178" fill="#e63540"/><path d="M 534 0 A 178 178 0 0 1  712 178 L 534 0 A 178 178 0 0 0 712 178" fill="#e63440"/><rect x="712" y="0" width="178" height="178" fill="#ffffff"/><rect x="712" y="0" width="89" height="89" fill="#e7414c"/><path d="M 712 0 A 89 89 0 0 1 801 89 L 712 89" fill="#fdf1f2"/><rect x="801" y="0" width="89" height="89" fill="#f8cbce"/><path d="M 801 0 A 89 89 0 0 1 890 89 L 801 89" fill="#f2969c"/><rect x="712" y="89" width="89" height="89" fill="#f3ff74"/><path d="M 712 178 A 89 89 0 0 1  801 89 L 712 178 A 89 89 0 0 0 801 89" fill="#e84852"/><rect x="801" y="89" width="89" height="89" fill="#f8ffab"/><path d="M 801 89 A 89 89 0 0 1  890 178 L 801 89 A 89 89 0 0 0 890 178" fill="#e21b28"/><rect x="890" y="0" width="178" height="178" fill="#ea5a64"/><path d="M 890 178 A 178 178 0 0 1  1068 0 L 890 178 A 178 178 0 0 0 1068 0" fill="#e84953"/><rect x="1068" y="0" width="178" height="178" fill="#fbffcb"/><path d="M 1068 178 A 178 178 0 0 1  1246 0 L 1068 178 A 178 178 0 0 0 1246 0" fill="#eeff34"/><rect x="1246" y="0" width="178" height="178" fill="#f2ff63"/><path d="M 1246 178 A 178 178 0 0 1  1424 0 L 1424 178" fill="#f8cacd"/><rect x="0" y="178" width="178" height="178" fill="#ffffff"/><rect x="0" y="178" width="89" height="89" fill="#e52c38"/><path d="M 0 178 A 89 89 0 0 1  89 267 L 0 178 A 89 89 0 0 0 89 267" fill="#f6ff8f"/><rect x="89" y="178" width="89" height="89" fill="#f7ffa4"/><path d="M 89 267 A 89 89 0 0 1  178 178 L 89 267 A 89 89 0 0 0 178 178" fill="#faffbe"/><rect x="0" y="267" width="89" height="89" fill="#f5ff8c"/><path d="M 0 356 A 89 89 0 0 1  89 267 L 0 356 A 89 89 0 0 0 89 267" fill="#fdeff0"/><rect x="89" y="267" width="89" height="89" fill="#f2ff62"/><path d="M 89 356 A 89 89 0 0 1  178 267 L 89 356 A 89 89 0 0 0 178 267" fill="#fefff3"/><rect x="178" y="178" width="178" height="178" fill="#e9535c"/><path d="M 178 178 A 178 178 0 0 0 356 356 L 356 178" fill="#fbe0e1"/><rect x="356" y="178" width="178" height="178" fill="#ffffff"/><rect x="356" y="178" width="89" height="89" fill="#eb5d66"/><path d="M 356 267 A 89 89 0 0 1  445 178 L 356 267 A 89 89 0 0 0 445 178" fill="#f8ffa9"/><rect x="445" y="178" width="89" height="89" fill="#f5aeb3"/><path d="M 445 267 A 89 89 0 0 1  534 178 L 534 267" fill="#f4ff7a"/><rect x="356" y="267" width="89" height="89" fill="#fce7e9"/><path d="M 356 267 A 89 89 0 0 1  445 356 L 356 267 A 89 89 0 0 0 445 356" fill="#f4ff7f"/><rect x="445" y="267" width="89" height="89" fill="#fcffd6"/><path d="M 445 356 A 89 89 0 0 1  534 267 L 534 356" fill="#f6ff94"/><rect x="534" y="178" width="178" height="178" fill="#fffffc"/><path d="M 534 178 A 178 178 0 0 1 712 356 L 534 356" fill="#f4ff7b"/><rect x="712" y="178" width="178" height="178" fill="#e52e3a"/><path d="M 712 356 A 178 178 0 0 0 890 178 L 712 178" fill="#fdffea"/><rect x="890" y="178" width="178" height="178" fill="#fdffe5"/><path d="M 890 178 A 178 178 0 0 0 1068 356 L 1068 178" fill="#fdffe3"/><rect x="1068" y="178" width="178" height="178" fill="#eeff39"/><path d="M 1068 178 A 178 178 0 0 1  1246 356 L 1068 178 A 178 178 0 0 0 1246 356" fill="#f6b6ba"/><rect x="1246" y="178" width="178" height="178" fill="#fcffdb"/><path d="M 1246 178 A 178 178 0 0 1 1424 356 L 1246 356" fill="#faffc1"/><rect x="0" y="356" width="178" height="178" fill="#ffffff"/><rect x="0" y="356" width="89" height="89" fill="#f7ffa0"/><path d="M 0 445 A 89 89 0 0 1  89 356 L 89 445" fill="#f8c5c8"/><rect x="89" y="356" width="89" height="89" fill="#e21825"/><path d="M 89 356 A 89 89 0 0 1 178 445 L 89 445" fill="#f3ff6d"/><rect x="0" y="445" width="89" height="89" fill="#f0ff4e"/><path d="M 0 445 A 89 89 0 0 0 89 534 L 89 445" fill="#fcffda"/><rect x="89" y="445" width="89" height="89" fill="#f6ff99"/><path d="M 89 445 A 89 89 0 0 1  178 534 L 89 445 A 89 89 0 0 0 178 534" fill="#e63a45"/><rect x="178" y="356" width="178" height="178" fill="#f9ffb8"/><path d="M 178 534 A 178 178 0 0 1  356 356 L 356 534" fill="#eeff35"/><rect x="356" y="356" width="178" height="178" fill="#efff45"/><path d="M 356 356 A 178 178 0 0 0 534 534 L 534 356" fill="#f4ff7f"/><rect x="534" y="356" width="178" height="178" fill="#f7bec1"/><path d="M 534 356 A 178 178 0 0 1 712 534 L 534 534" fill="#f6ff90"/><rect x="712" y="356" width="178" height="178" fill="#ffffff"/><rect x="712" y="356" width="89" height="89" fill="#e21926"/><path d="M 712 356 A 89 89 0 0 1  801 445 L 712 356 A 89 89 0 0 0 801 445" fill="#f1ff59"/><rect x="801" y="356" width="89" height="89" fill="#feffee"/><path d="M 801 356 A 89 89 0 0 1  890 445 L 801 356 A 89 89 0 0 0 890 445" fill="#efff42"/><rect x="712" y="445" width="89" height="89" fill="#fbffd3"/><path d="M 712 445 A 89 89 0 0 0 801 534 L 801 445" fill="#ee757d"/><rect x="801" y="445" width="89" height="89" fill="#f8c9cc"/><path d="M 801 445 A 89 89 0 0 1  890 534 L 801 445 A 89 89 0 0 0 890 534" fill="#eeff33"/><rect x="890" y="356" width="178" height="178" fill="#f0ff4f"/><path d="M 890 534 A 178 178 0 0 1  1068 356 L 890 534 A 178 178 0 0 0 1068 356" fill="#e42935"/><rect x="1068" y="356" width="178" height="178" fill="#ffffff"/><rect x="1068" y="356" width="89" height="89" fill="#ee7880"/><path d="M 1068 445 A 89 89 0 0 0 1157 356 L 1068 356" fill="#f7ffa4"/><rect x="1157" y="356" width="89" height="89" fill="#f0ff4a"/><path d="M 1157 356 A 89 89 0 0 1 1246 445 L 1157 445" fill="#e94f59"/><rect x="1068" y="445" width="89" height="89" fill="#f9ffb2"/><path d="M 1068 534 A 89 89 0 0 0 1157 445 L 1068 445" fill="#f4ff78"/><rect x="1157" y="445" width="89" height="89" fill="#e31f2b"/><path d="M 1157 534 A 89 89 0 0 1  1246 445 L 1157 534 A 89 89 0 0 0 1246 445" fill="#f3ff6b"/><rect x="1246" y="356" width="178" height="178" fill="#ffffff"/><rect x="1246" y="356" width="89" height="89" fill="#f9ffb2"/><path d="M 1246 356 A 89 89 0 0 0 1335 445 L 1335 356" fill="#ea5861"/><rect x="1335" y="356" width="89" height="89" fill="#faffbf"/><path d="M 1335 356 A 89 89 0 0 1  1424 445 L 1335 356 A 89 89 0 0 0 1424 445" fill="#f0888f"/><rect x="1246" y="445" width="89" height="89" fill="#e3202c"/><path d="M 1246 534 A 89 89 0 0 1  1335 445 L 1335 534" fill="#efff41"/><rect x="1335" y="445" width="89" height="89" fill="#f5b2b6"/><path d="M 1335 445 A 89 89 0 0 1 1424 534 L 1335 534" fill="#f0ff47"/></g></svg>