<?xml version="1.0" standalone="no"?><svg xmlns:xlink="http://www.w3.org/1999/xlink" xmlns="http://www.w3.org/2000/svg" viewBox="0 0 1000 375" preserveAspectRatio="xMaxYMax slice"><g transform="scale(0.702247191011236)"><rect x="0" y="0" width="1424" height="534" fill="#ffffff"/><rect x="0" y="0" width="178" height="178" fill="#ffffff"/><rect x="0" y="0" width="89" height="89" fill="#18e2df"/><path d="M 0 89 A 89 89 0 0 1 89 0 L 89 22.25 A 66.75 66.75 0 0 0 22.25 89" fill="#ffadad"/><rect x="89" y="0" width="89" height="89" fill="#ffadad"/><path d="M 89 0 A 89 89 0 0 1 178 89 L 155.75 89 A 66.75 66.75 0 0 0 89 22.25" fill="#ffadad"/><rect x="0" y="89" width="89" height="89" fill="#ffadad"/><path d="M 0 89 A 89 89 0 0 0 89 178 L 89 155.75 A 66.75 66.75 0 0 1 22.25 89" fill="#18e2df"/><rect x="89" y="89" width="89" height="89" fill="#18e2df"/><path d="M 89 178 A 89 89 0 0 0 178 89 L 155.75 89 A 66.75 66.75 0 0 1 89 155.75" fill="#ffadad"/><rect x="178" y="0" width="178" height="178" fill="#ffadad"/><path d="M 178 178 A 178 178 0 0 1  356 0 L 356 178" fill="#ffadad"/><rect x="356" y="0" width="178" height="178" fill="#18e2df"/><rect x="356" y="0" width="178" height="178" fill="#18e2df"/><rect x="534" y="0" width="178" height="178" fill="#ffadad"/><polygon points="534,0 712,0 712,178" fill="#18e2df"/><rect x="712" y="0" width="178" height="178" fill="#ffffff"/><rect x="712" y="0" width="89" height="89" fill="#18e2df"/><path d="M 712 89 A 89 89 0 0 1 801 0 L 801 22.25 A 66.75 66.75 0 0 0 734.25 89" fill="#ffadad"/><rect x="801" y="0" width="89" height="89" fill="#18e2df"/><path d="M 801 0 A 89 89 0 0 1 890 89 L 867.75 89 A 66.75 66.75 0 0 0 801 22.25" fill="#ffadad"/><rect x="712" y="89" width="89" height="89" fill="#ffadad"/><path d="M 712 89 A 89 89 0 0 0 801 178 L 801 155.75 A 66.75 66.75 0 0 1 734.25 89" fill="#ffadad"/><rect x="801" y="89" width="89" height="89" fill="#ffadad"/><path d="M 801 178 A 89 89 0 0 0 890 89 L 867.75 89 A 66.75 66.75 0 0 1 801 155.75" fill="#ffadad"/><rect x="890" y="0" width="178" height="178" fill="#ffadad"/><rect x="890" y="0" width="178" height="178" fill="#ffadad"/><rect x="1068" y="0" width="178" height="178" fill="#ffadad"/><path d="M 1068 178 A 178 178 0 0 1  1246 0 L 1246 178" fill="#18e2df"/><rect x="1246" y="0" width="178" height="178" fill="#ffffff"/><rect x="1246" y="0" width="89" height="89" fill="#18e2df"/><circle cx="1290.5" cy="44.5" r="44.5" fill="#18e2df"/><rect x="1335" y="0" width="89" height="89" fill="#ffadad"/><rect x="1335" y="0" width="89" height="89" fill="#18e2df"/><rect x="1246" y="89" width="89" height="89" fill="#18e2df"/><circle cx="1290.5" cy="133.5" r="44.5" fill="#18e2df"/><rect x="1335" y="89" width="89" height="89" fill="#18e2df"/><rect x="1335" y="89" width="89" height="89" fill="#18e2df"/><rect x="0" y="178" width="178" height="178" fill="#18e2df"/><polygon points="0,178 178,356 0,356" fill="#18e2df"/><rect x="178" y="178" width="178" height="178" fill="#ffffff"/><rect x="178" y="178" width="89" height="89" fill="#18e2df"/><circle cx="222.5" cy="222.5" r="44.5" fill="#18e2df"/><rect x="267" y="178" width="89" height="89" fill="#ffadad"/><rect x="267" y="178" width="89" height="89" fill="#18e2df"/><rect x="178" y="267" width="89" height="89" fill="#ffadad"/><circle cx="222.5" cy="311.5" r="44.5" fill="#ffadad"/><rect x="267" y="267" width="89" height="89" fill="#ffadad"/><rect x="267" y="267" width="89" height="89" fill="#18e2df"/><rect x="356" y="178" width="178" height="178" fill="#18e2df"/><path d="M 356 178 A 178 178 0 0 1  534 356 L 356 178 A 178 178 0 0 0 534 356" fill="#18e2df"/><rect x="534" y="178" width="178" height="178" fill="#ffffff"/><rect x="534" y="178" width="89" height="89" fill="#ffadad"/><circle cx="578.5" cy="222.5" r="44.5" fill="#18e2df"/><rect x="623" y="178" width="89" height="89" fill="#18e2df"/><rect x="623" y="178" width="89" height="89" fill="#18e2df"/><rect x="534" y="267" width="89" height="89" fill="#18e2df"/><circle cx="578.5" cy="311.5" r="44.5" fill="#18e2df"/><rect x="623" y="267" width="89" height="89" fill="#ffadad"/><rect x="623" y="267" width="89" height="89" fill="#ffadad"/><rect x="712" y="178" width="178" height="178" fill="#18e2df"/><path d="M 712 178 A 178 178 0 0 0 890 356 L 890 178" fill="#18e2df"/><rect x="890" y="178" width="178" height="178" fill="#18e2df"/><rect x="890" y="178" width="178" height="178" fill="#ffadad"/><rect x="1068" y="178" width="178" height="178" fill="#18e2df"/><polygon points="1068,178 1246,178 1068,356" fill="#ffadad"/><rect x="1246" y="178" width="178" height="178" fill="#18e2df"/><path d="M 1246 356 A 178 178 0 0 0 1424 178 L 1246 178" fill="#ffadad"/><rect x="0" y="356" width="178" height="178" fill="#ffffff"/><rect x="0" y="356" width="89" height="89" fill="#18e2df"/><path d="M 0 356 A 89 89 0 0 1 89 445 L 0 445" fill="#ffadad"/><rect x="89" y="356" width="89" height="89" fill="#ffadad"/><path d="M 89 445 A 89 89 0 0 1  178 356 L 178 445" fill="#18e2df"/><rect x="0" y="445" width="89" height="89" fill="#18e2df"/><path d="M 0 534 A 89 89 0 0 0 89 445 L 0 445" fill="#18e2df"/><rect x="89" y="445" width="89" height="89" fill="#ffadad"/><path d="M 89 445 A 89 89 0 0 0 178 534 L 178 445" fill="#18e2df"/><rect x="178" y="356" width="178" height="178" fill="#ffffff"/><rect x="178" y="356" width="89" height="89" fill="#ffadad"/><path d="M 178 356 A 89 89 0 0 1 267 445 L 178 445" fill="#ffadad"/><rect x="267" y="356" width="89" height="89" fill="#ffadad"/><path d="M 267 445 A 89 89 0 0 1  356 356 L 356 445" fill="#18e2df"/><rect x="178" y="445" width="89" height="89" fill="#18e2df"/><path d="M 178 534 A 89 89 0 0 0 267 445 L 178 445" fill="#ffadad"/><rect x="267" y="445" width="89" height="89" fill="#18e2df"/><path d="M 267 445 A 89 89 0 0 0 356 534 L 356 445" fill="#ffadad"/><rect x="356" y="356" width="178" height="178" fill="#ffffff"/><rect x="356" y="356" width="89" height="89" fill="#ffadad"/><path d="M 356 356 A 89 89 0 0 1 445 445 L 356 445" fill="#18e2df"/><rect x="445" y="356" width="89" height="89" fill="#18e2df"/><path d="M 445 445 A 89 89 0 0 1  534 356 L 534 445" fill="#18e2df"/><rect x="356" y="445" width="89" height="89" fill="#ffadad"/><path d="M 356 534 A 89 89 0 0 0 445 445 L 356 445" fill="#ffadad"/><rect x="445" y="445" width="89" height="89" fill="#ffadad"/><path d="M 445 445 A 89 89 0 0 0 534 534 L 534 445" fill="#ffadad"/><rect x="534" y="356" width="178" height="178" fill="#ffadad"/><polygon points="534,356 712,356 534,534" fill="#ffadad"/><rect x="712" y="356" width="178" height="178" fill="#ffffff"/><rect x="712" y="356" width="89" height="89" fill="#18e2df"/><polygon points="801,356 801,445 712,445" fill="#ffadad"/><rect x="801" y="356" width="89" height="89" fill="#18e2df"/><polygon points="801,356 890,356 801,445" fill="#18e2df"/><rect x="712" y="445" width="89" height="89" fill="#ffadad"/><polygon points="712,445 801,445 801,534" fill="#18e2df"/><rect x="801" y="445" width="89" height="89" fill="#ffadad"/><polygon points="801,445 890,534 801,534" fill="#18e2df"/><rect x="890" y="356" width="178" height="178" fill="#18e2df"/><path d="M 890 356 A 178 178 0 0 1  1068 534 L 890 356 A 178 178 0 0 0 1068 534" fill="#ffadad"/><rect x="1068" y="356" width="178" height="178" fill="#ffadad"/><polygon points="1068,356 1246,534 1068,534" fill="#18e2df"/><rect x="1246" y="356" width="178" height="178" fill="#ffffff"/><rect x="1246" y="356" width="89" height="89" fill="#18e2df"/><path d="M 1246 356 A 89 89 0 0 1 1335 445 L 1246 445" fill="#18e2df"/><rect x="1335" y="356" width="89" height="89" fill="#ffadad"/><path d="M 1335 445 A 89 89 0 0 1  1424 356 L 1424 445" fill="#ffadad"/><rect x="1246" y="445" width="89" height="89" fill="#18e2df"/><path d="M 1246 534 A 89 89 0 0 0 1335 445 L 1246 445" fill="#ffadad"/><rect x="1335" y="445" width="89" height="89" fill="#18e2df"/><path d="M 1335 445 A 89 89 0 0 0 1424 534 L 1424 445" fill="#ffadad"/></g></svg>